<?xml version="1.0" encoding="utf-8"?>
<!-- Generator: Adobe Illustrator 26.0.2, SVG Export Plug-In . SVG Version: 6.00 Build 0)  -->
<svg version="1.1" id="Layer_1" xmlns="http://www.w3.org/2000/svg" xmlns:xlink="http://www.w3.org/1999/xlink" x="0px" y="0px"
	 viewBox="0 0 158.54 158.54" style="enable-background:new 0 0 158.54 158.54;" xml:space="preserve">
<style type="text/css">
	.st0{fill:#DE073A;}
	.st1{fill:#010202;}
	.st2{fill:#FFFFFF;}
</style>
<rect x="0" class="st0" width="158.54" height="158.54"/>
<path class="st1" d="M158.25,158.54H80.38v-56.41c0-11.86,9.61-21.47,21.47-21.47h56.41V158.54z"/>
<path class="st2" d="M79.21,19.65L52.88,34.71L41.13,11.6l-3.69,31.65l-10.98-3.12L14.3,59.38l23.01,1.13l12.46,15.84l-4.05,25.72
	l25.18-32.03l-9.02-16.98L72.96,31.7L79.21,19.65z M43.57,25.21l11.46,22.82l-13.67-3.92L43.57,25.21z M26.77,47.13l7.28,9.22
	l-12.7-0.62L26.77,47.13z M30.53,45.45l10.07,2.86l6.72,18.46L30.53,45.45z M45.25,49.39l9.14,2.62l-2.82,14.73L45.25,49.39z
	 M66.16,69.62l-14.1,17.93l5.96-33.25L66.16,69.62z M59.73,48.54L54.7,38.27l14.71-8.41L59.73,48.54z"/>
<path class="st2" d="M112.98,115.8v-5.7c0-5.25,4.25-9.5,9.5-9.5c5.25,0,9.5,4.25,9.5,9.5v1.9h3.8v-1.9c0-7.35-5.96-13.3-13.3-13.3
	s-13.3,5.96-13.3,13.3v5.7h-5.7v26.6h38v-26.6H112.98z M137.68,138.6h-30.4v-19h30.4V138.6z M128.18,127.2c0-3.15-2.55-5.7-5.7-5.7
	c-3.15,0-5.7,2.55-5.7,5.7v9.5h11.4V127.2z M124.38,132.9h-3.8v-5.7c0-1.05,0.85-1.9,1.9-1.9c1.05,0,1.9,0.85,1.9,1.9V132.9z"/>
</svg>
